<svg width="60.000000" height="60.000000" viewBox="0 0 60 60" fill="none" xmlns="http://www.w3.org/2000/svg" xmlns:xlink="http://www.w3.org/1999/xlink">
	<desc>
			Created with Pixso.
	</desc>
	<defs>
		<clipPath id="clip8_236">
			<rect id="parasol 1" rx="0.000000" width="21.000000" height="21.000000" transform="translate(19.500000 19.500000)" fill="white" fill-opacity="0"/>
		</clipPath>
	</defs>
	<circle id="Ellipse 1" cx="30.000000" cy="30.000000" r="30.000000" fill="#D9D9D9" fill-opacity="0"/>
	<circle id="Ellipse 1" cx="30.000000" cy="30.000000" r="29.750000" stroke="#34BB51" stroke-opacity="1.000000" stroke-width="0.500000"/>
	<rect id="Frame 1" rx="24.500000" width="49.000000" height="49.000000" transform="translate(5.500000 5.500000)" fill="#34BB51" fill-opacity="1.000000"/>
	<rect id="parasol 1" rx="0.000000" width="21.000000" height="21.000000" transform="translate(19.500000 19.500000)" fill="#FFFFFF" fill-opacity="0"/>
	<g clip-path="url(#clip8_236)">
		<path id="Vector" d="M40.12 39.06C38.11 36.6 34.64 35.12 30.83 35.12C30.49 35.12 30.17 35.15 29.84 35.17L28.48 30.01L35.08 28.26C35.41 28.18 35.69 27.95 35.85 27.65C36.01 27.34 36.03 26.98 35.91 26.65C34.53 22.91 30.46 20.86 26.27 21.67L25.98 20.58C25.89 20.23 25.54 20.03 25.19 20.12C24.85 20.21 24.64 20.56 24.73 20.91L25.02 22C20.97 23.37 18.45 27.17 19.1 31.1C19.15 31.44 19.35 31.75 19.64 31.94C19.84 32.06 20.07 32.13 20.31 32.13C20.41 32.13 20.52 32.12 20.62 32.09L27.23 30.34L28.55 35.32C25.66 35.78 23.13 37.1 21.53 39.06C21.25 39.42 21.19 39.9 21.39 40.31C21.59 40.73 22 41 22.47 41L39.18 41C39.65 41 40.06 40.73 40.26 40.31C40.46 39.9 40.41 39.42 40.12 39.06ZM34.7 27.03L31.18 27.96C30.51 25.88 29.49 23.95 28.32 22.81C31.17 22.91 33.75 24.53 34.7 27.03ZM20.36 30.82C19.95 28.16 21.38 25.49 23.8 24C23.35 25.57 23.41 27.76 23.86 29.9L20.36 30.82ZM25.97 23.06C25.97 23.06 25.97 23.06 25.97 23.06L25.97 23.06C27 22.78 28.82 24.85 29.93 28.29L25.11 29.57C24.38 26.03 24.94 23.33 25.97 23.06ZM22.68 39.7C24.45 37.67 27.54 36.41 30.83 36.41C34.11 36.41 37.2 37.67 38.97 39.7L22.68 39.7Z" fill="#FFFFFF" fill-opacity="1.000000" fill-rule="nonzero"/>
	</g>
	<rect id="Frame 1" rx="24.500000" width="49.000000" height="49.000000" transform="translate(5.500000 5.500000)" stroke="#FFFFFF" stroke-opacity="0" stroke-width="1.000000"/>
</svg>
