<svg width="24" height="20" viewBox="0 0 24 20" fill="none" xmlns="http://www.w3.org/2000/svg">
<path d="M22.6667 3.33334H1.33333C0.533333 3.33334 0 2.80001 0 2.00001C0 1.20001 0.533333 0.666672 1.33333 0.666672H22.6667C23.4667 0.666672 24 1.20001 24 2.00001C24 2.80001 23.4667 3.33334 22.6667 3.33334Z" fill="#343434"/>
<path d="M14.6667 11.3333H1.33333C0.533333 11.3333 0 10.8 0 10C0 9.20001 0.533333 8.66667 1.33333 8.66667H14.6667C15.4667 8.66667 16 9.20001 16 10C16 10.8 15.4667 11.3333 14.6667 11.3333Z" fill="#343434"/>
<path d="M20 19.3333H1.33333C0.533333 19.3333 0 18.8 0 18C0 17.2 0.533333 16.6667 1.33333 16.6667H20C20.8 16.6667 21.3333 17.2 21.3333 18C21.3333 18.8 20.8 19.3333 20 19.3333Z" fill="#343434"/>
</svg>
