<svg width="23" height="24" viewBox="0 0 23 24" fill="none" xmlns="http://www.w3.org/2000/svg">
<path fill-rule="evenodd" clip-rule="evenodd" d="M4.79246 17.3536C4.41823 17.728 4.41829 18.3347 4.79258 18.7089C5.16686 19.0831 5.77364 19.0831 6.14786 18.7088L11.5004 13.3554L16.8533 18.7083C17.2276 19.0826 17.8344 19.0826 18.2086 18.7083C18.5829 18.3341 18.5829 17.7273 18.2086 17.3531L12.8556 12L18.2082 6.64639C18.5824 6.2721 18.5824 5.66532 18.208 5.2911C17.8338 4.91687 17.227 4.91693 16.8528 5.29122L11.5002 10.6447L6.14721 5.29168C5.77296 4.91743 5.16617 4.91743 4.79192 5.29168C4.41767 5.66594 4.41767 6.27271 4.79192 6.64697L10.1451 12.0001L4.79246 17.3536Z" fill="#343434"/>
</svg>
