<svg width="60.000000" height="60.000000" viewBox="0 0 60 60" fill="none" xmlns="http://www.w3.org/2000/svg" xmlns:xlink="http://www.w3.org/1999/xlink">
	<desc>
			Created with Pixso.
	</desc>
	<defs>
		<clipPath id="clip8_271">
			<rect id="cctv 1" rx="0.000000" width="25.000000" height="25.000000" transform="translate(2.500000 17.500000)" fill="white" fill-opacity="0"/>
		</clipPath>
		<clipPath id="clip8_469">
			<rect id="cctv (1) 1" rx="0.000000" width="19.000000" height="19.000000" transform="translate(20.500000 20.500000)" fill="white" fill-opacity="0"/>
		</clipPath>
	</defs>
	<circle id="Ellipse 1" cx="30.000000" cy="30.000000" r="30.000000" fill="#D9D9D9" fill-opacity="0"/>
	<circle id="Ellipse 1" cx="30.000000" cy="30.000000" r="29.750000" stroke="#34BB51" stroke-opacity="1.000000" stroke-width="0.500000"/>
	<rect id="Frame 1" rx="24.500000" width="49.000000" height="49.000000" transform="translate(5.500000 5.500000)" fill="#34BB51" fill-opacity="1.000000"/>
	<rect id="cctv (1) 1" rx="0.000000" width="19.000000" height="19.000000" transform="translate(20.500000 20.500000)" fill="#FFFFFF" fill-opacity="0"/>
	<g clip-path="url(#clip8_469)">
		<path id="Vector" d="M39.37 21.61L20.62 21.61C20.27 21.61 20 21.89 20 22.24L20 24.13C20 25.48 20.82 26.65 21.99 27.16L21.99 30.37C21.99 32.5 22.82 34.51 24.34 36.02C25.86 37.54 27.86 38.38 30 38.38C32.13 38.38 34.13 37.54 35.65 36.02C37.17 34.51 38 32.5 38 30.37L38 27.16C39.17 26.65 40 25.48 40 24.13L40 22.24C40 21.89 39.72 21.61 39.37 21.61ZM30 37.13C28.92 37.13 27.9 36.87 27 36.42L27 33.49C27 31.84 28.34 30.49 30 30.49C31.65 30.49 32.99 31.84 32.99 33.49L32.99 36.42C32.09 36.87 31.07 37.13 30 37.13ZM36.75 30.37C36.75 32.49 35.77 34.38 34.24 35.62L34.24 33.49C34.24 31.15 32.34 29.24 30 29.24C27.65 29.24 25.75 31.15 25.75 33.49L25.75 35.62C24.22 34.38 23.24 32.49 23.24 30.37L23.24 27.43C23.26 27.43 23.28 27.43 23.3 27.43L36.69 27.43C36.71 27.43 36.73 27.43 36.75 27.43L36.75 30.37L36.75 30.37ZM38.75 24.13C38.75 25.26 37.82 26.18 36.69 26.18L23.3 26.18C22.17 26.18 21.25 25.26 21.25 24.13L21.25 22.86L38.75 22.86L38.75 24.13ZM30 31.49C28.93 31.49 28.07 32.36 28.07 33.42C28.07 34.49 28.93 35.35 30 35.35C31.06 35.35 31.92 34.49 31.92 33.42C31.92 32.36 31.06 31.49 30 31.49ZM30 34.1C29.62 34.1 29.32 33.8 29.32 33.42C29.32 33.05 29.62 32.74 30 32.74C30.37 32.74 30.67 33.05 30.67 33.42C30.67 33.8 30.37 34.1 30 34.1Z" fill="#FFFFFF" fill-opacity="1.000000" fill-rule="nonzero"/>
	</g>
	<rect id="Frame 1" rx="24.500000" width="49.000000" height="49.000000" transform="translate(5.500000 5.500000)" stroke="#FFFFFF" stroke-opacity="0" stroke-width="1.000000"/>
</svg>
