<svg width="29" height="29" viewBox="0 0 29 29" fill="none" xmlns="http://www.w3.org/2000/svg">
<path d="M24.753 4.24691C22.0142 1.50823 18.373 0 14.4999 0C14.4997 0 14.5 0 14.4998 0C10.627 0 6.98549 1.5084 4.24691 4.24691C1.50828 6.9856 0 10.6269 0 14.5C0.000113281 16.9655 0.627578 19.3888 1.81771 21.532L0.0313789 27.9216C-0.0512031 28.2171 0.0319453 28.5341 0.248879 28.7511C0.465813 28.968 0.782773 29.0511 1.07844 28.9686L7.46812 27.1822C9.61118 28.3725 12.0343 28.9999 14.4999 29C18.3731 29 22.0143 27.4917 24.7531 24.753C27.4918 22.0143 29 18.373 29 14.4999C28.9999 10.6268 27.4915 6.9856 24.753 4.24691ZM14.4999 27.3008C12.2147 27.3007 9.97153 26.6906 8.01278 25.5364C7.88086 25.4586 7.73179 25.4187 7.58146 25.4187C7.50477 25.4187 7.42785 25.4291 7.35269 25.4501L2.07412 26.9258L3.54984 21.6474C3.61209 21.4248 3.58093 21.1865 3.46363 20.9874C2.30941 19.0284 1.69933 16.7851 1.69922 14.4999C1.69922 11.0807 3.03073 7.86619 5.44849 5.44843C7.86625 3.03067 11.0808 1.69922 14.4999 1.69922C21.5581 1.69922 27.3006 7.44162 27.3008 14.4999C27.3008 21.5583 21.5583 27.3008 14.4999 27.3008Z" fill="url(#paint0_linear_15_27)"/>
<path d="M20.7592 15.5865C20.2399 15.0671 19.5473 14.7811 18.8092 14.7811C18.0711 14.7811 17.3786 15.0671 16.8593 15.5864L16.4655 15.9802C16.3683 16.0773 16.2378 16.1309 16.0979 16.1309C15.958 16.1309 15.8274 16.0773 15.7301 15.98L13.0185 13.2685C12.9214 13.1714 12.8679 13.0408 12.8679 12.9009C12.8679 12.7609 12.9213 12.6304 13.0183 12.5334L13.4123 12.1394C14.4875 11.0642 14.4875 9.31472 13.4124 8.23951L12.6244 7.45136C12.105 6.93214 11.4125 6.64627 10.6744 6.64627C9.93633 6.64627 9.24385 6.93219 8.72445 7.45159L8.13698 8.03918C6.8949 9.28125 6.44404 11.1309 6.86732 13.2476C7.26567 15.2393 8.40432 17.2556 10.0736 18.925C12.1772 21.0283 14.8563 22.2842 17.2403 22.2843H17.2408C18.7429 22.2843 20.029 21.7925 20.9595 20.8619L21.547 20.2744C22.6222 19.1992 22.6222 17.4496 21.547 16.3742L20.7592 15.5865ZM20.3456 19.0729L19.758 19.6604C19.153 20.2654 18.2827 20.5851 17.2408 20.5851H17.2405C15.2971 20.585 13.067 19.5152 11.2752 17.7235C9.8405 16.2887 8.86685 14.5808 8.53363 12.9143C8.22534 11.3728 8.5112 10.0682 9.33861 9.24069L9.92603 8.65316C10.1244 8.45481 10.3902 8.34555 10.6745 8.34555C10.9589 8.34555 11.2247 8.45481 11.423 8.65305L12.2109 9.44103C12.6235 9.85377 12.6235 10.5252 12.2109 10.9379L11.8169 11.3319C11.3989 11.7499 11.1687 12.3072 11.1687 12.9012C11.1688 13.495 11.3991 14.0523 11.8171 14.4702L14.5286 17.1817C14.9468 17.5999 15.5041 17.8302 16.098 17.8302C16.6917 17.8302 17.249 17.5999 17.667 17.1819L18.0609 16.7881C18.2593 16.5896 18.525 16.4804 18.8093 16.4804C19.0935 16.4804 19.3593 16.5896 19.5578 16.7881L20.3456 17.5759C20.7583 17.9886 20.7583 18.6601 20.3456 19.0729Z" fill="url(#paint1_linear_15_27)"/>
<defs>
<linearGradient id="paint0_linear_15_27" x1="0.725" y1="28.45" x2="28.9928" y2="29.2528" gradientUnits="userSpaceOnUse">
<stop stop-color="#34BB51"/>
<stop offset="0.524038" stop-color="#5BBE09"/>
<stop offset="1" stop-color="#34BB51"/>
</linearGradient>
<linearGradient id="paint1_linear_15_27" x1="7.10343" y1="21.9878" x2="22.3496" y2="22.4209" gradientUnits="userSpaceOnUse">
<stop stop-color="#34BB51"/>
<stop offset="0.524038" stop-color="#5BBE09"/>
<stop offset="1" stop-color="#34BB51"/>
</linearGradient>
</defs>
</svg>
