<svg width="60.000000" height="60.000000" viewBox="0 0 60 60" fill="none" xmlns="http://www.w3.org/2000/svg" xmlns:xlink="http://www.w3.org/1999/xlink">
	<desc>
			Created with Pixso.
	</desc>
	<defs>
		<clipPath id="clip6_389">
			<rect id="power-cable 1" rx="0.000000" width="19.000000" height="19.000000" transform="translate(20.500000 20.500000)" fill="white" fill-opacity="0"/>
		</clipPath>
	</defs>
	<circle id="Ellipse 1" cx="30.000000" cy="30.000000" r="30.000000" fill="#D9D9D9" fill-opacity="0"/>
	<circle id="Ellipse 1" cx="30.000000" cy="30.000000" r="29.750000" stroke="#34BB51" stroke-opacity="1.000000" stroke-width="0.500000"/>
	<rect id="Frame 1" rx="24.500000" width="49.000000" height="49.000000" transform="translate(5.500000 5.500000)" fill="#34BB51" fill-opacity="1.000000"/>
	<rect id="power-cable 1" rx="0.000000" width="19.000000" height="19.000000" transform="translate(20.500000 20.500000)" fill="#FFFFFF" fill-opacity="0"/>
	<g clip-path="url(#clip6_389)">
		<mask id="mask6_393" mask-type="alpha" maskUnits="userSpaceOnUse" x="20.000000" y="20.000000" width="20.000000" height="20.000000">
			<path id="path1134" d="M20 20L40 20L40 40L20 40L20 20Z" fill="#000000" fill-opacity="1.000000" fill-rule="nonzero"/>
		</mask>
		<g mask="url(#mask6_393)">
			<path id="path1140" d="M23.99 21L23.99 27L26.99 27C28.65 27 29.99 25.65 29.99 24C29.99 22.34 28.65 21 26.99 21L23.99 21Z" stroke="#FFFFFF" stroke-opacity="1.000000" stroke-width="1.400000" stroke-linejoin="round"/>
			<path id="path1144" d="M21 22.5L23.99 22.5" stroke="#FFFFFF" stroke-opacity="1.000000" stroke-width="1.400000" stroke-linejoin="round" stroke-linecap="round"/>
			<path id="path1148" d="M23.99 25.5L21 25.5" stroke="#FFFFFF" stroke-opacity="1.000000" stroke-width="1.400000" stroke-linejoin="round" stroke-linecap="round"/>
			<path id="path1152" d="M30 24L35.24 24C37.32 24 38.99 25.67 38.99 27.75C38.99 29.82 37.32 31.5 35.24 31.5L24.75 31.5C22.67 31.5 21 33.17 21 35.25C21 37.32 22.67 39 24.75 39L38.99 39" stroke="#FFFFFF" stroke-opacity="1.000000" stroke-width="1.400000" stroke-linejoin="round" stroke-linecap="round"/>
		</g>
	</g>
	<rect id="Frame 1" rx="24.500000" width="49.000000" height="49.000000" transform="translate(5.500000 5.500000)" stroke="#FFFFFF" stroke-opacity="0" stroke-width="1.000000"/>
</svg>
