<svg width="60.000000" height="60.000000" viewBox="0 0 60 60" fill="none" xmlns="http://www.w3.org/2000/svg" xmlns:xlink="http://www.w3.org/1999/xlink">
	<desc>
			Created with Pixso.
	</desc>
	<defs>
		<clipPath id="clip8_194">
			<rect id="home 1" rx="0.000000" width="19.000000" height="19.000000" transform="translate(20.500000 20.500000)" fill="white" fill-opacity="0"/>
		</clipPath>
	</defs>
	<circle id="Ellipse 1" cx="30.000000" cy="30.000000" r="30.000000" fill="#D9D9D9" fill-opacity="0"/>
	<circle id="Ellipse 1" cx="30.000000" cy="30.000000" r="29.750000" stroke="#34BB51" stroke-opacity="1.000000" stroke-width="0.500000"/>
	<rect id="Frame 1" rx="24.500000" width="49.000000" height="49.000000" transform="translate(5.500000 5.500000)" fill="#34BB51" fill-opacity="1.000000"/>
	<rect id="home 1" rx="0.000000" width="19.000000" height="19.000000" transform="translate(20.500000 20.500000)" fill="#FFFFFF" fill-opacity="0"/>
	<g clip-path="url(#clip8_194)">
		<mask id="mask8_198" mask-type="alpha" maskUnits="userSpaceOnUse" x="20.000000" y="20.000000" width="20.000000" height="20.000000">
			<path id="path1890" d="M20 20L40 20L40 40L20 40L20 20Z" fill="#000000" fill-opacity="1.000000" fill-rule="nonzero"/>
		</mask>
		<g mask="url(#mask8_198)">
			<path id="path1896" d="M38.17 30.6L36.59 30.6L36.59 39L23.4 39L23.4 30.6L21.82 30.6C21.36 30.6 21 30.23 21 29.77L21 29.77C21 29.53 21.09 29.3 21.26 29.13C22.48 27.91 27.48 22.91 28.97 21.42C29.24 21.15 29.61 21 30 21C30.38 21 30.75 21.15 31.02 21.42C32.51 22.91 37.51 27.91 38.73 29.13C38.9 29.3 39 29.53 39 29.77L39 29.77C39 30.23 38.63 30.6 38.17 30.6Z" stroke="#FFFFFF" stroke-opacity="1.000000" stroke-width="1.400000" stroke-linejoin="round"/>
			<path id="path1900" d="M27.01 29.41C27.84 28.59 29.17 28.59 30 29.41L30 29.4C30.83 28.59 32.16 28.59 32.98 29.41C33.8 30.23 33.8 31.56 32.98 32.37L30 35.34L27.01 32.37C26.19 31.56 26.19 30.23 27.01 29.41Z" stroke="#FFFFFF" stroke-opacity="1.000000" stroke-width="1.400000" stroke-linejoin="round"/>
			<path id="path1904" d="M33 23.39L33 20.99L36 20.99L36 26.39" stroke="#FFFFFF" stroke-opacity="1.000000" stroke-width="1.400000" stroke-linejoin="round" stroke-linecap="round"/>
		</g>
	</g>
	<rect id="Frame 1" rx="24.500000" width="49.000000" height="49.000000" transform="translate(5.500000 5.500000)" stroke="#FFFFFF" stroke-opacity="0" stroke-width="1.000000"/>
</svg>
